/home/minht/3dpredictsim_tutorial/predsim_tutorial/Results/Case_11/GRF.mot
version=1
nRows=10
nColumns=19
inDegrees=yes
endheader 
time	r_ground_force_vx	r_ground_force_vy	r_ground_force_vz	r_ground_force_px	r_ground_force_py	r_ground_force_pz	l_ground_force_vx	l_ground_force_vy	l_ground_force_vz	l_ground_force_px	l_ground_force_py	l_ground_force_pz	r_ground_torque_x	r_ground_torque_y	r_ground_torque_z	l_ground_torque_x	l_ground_torque_y	l_ground_torque_z	
          0.00000000	        -79.87678018	         63.91363911	          6.05579846	          0.20695799	          0.00000000	          0.06173191	        122.98165370	        810.13832758	         19.34354543	         -0.27976079	          0.00000000	         -0.09557356	          0.00000000	         -0.02703993	          0.00000000	          0.00000000	         -4.80660101	          0.00000000	
          0.01616052	       -196.97135760	        192.63721644	         20.56499948	          0.20274835	          0.00000000	          0.06405338	        117.23333659	        742.62373954	         12.91635161	         -0.27037672	          0.00000000	         -0.09729627	          0.00000000	          0.27181197	          0.00000000	          0.00000000	         -4.52851868	          0.00000000	
          0.03232103	       -101.99365522	        404.93188517	         24.30998520	          0.17377644	          0.00000000	          0.07113380	        104.20978433	        650.27664742	          4.65293869	         -0.25694565	          0.00000000	         -0.09912268	          0.00000000	          4.04487792	          0.00000000	          0.00000000	         -3.79498615	          0.00000000	
          0.04848155	       -105.83217678	        662.13152287	         17.76326656	          0.15886977	          0.00000000	          0.07639351	         86.56500252	        552.57372936	         -1.43029414	         -0.23970753	          0.00000000	         -0.10065802	          0.00000000	          4.67508886	          0.00000000	          0.00000000	         -2.63898022	          0.00000000	
          0.06464207	       -110.94529056	        827.69602894	          9.08484703	          0.15108609	          0.00000000	          0.07939145	         72.36568553	        474.64193030	         -9.53764518	         -0.22430954	          0.00000000	         -0.10086317	          0.00000000	          4.27600404	          0.00000000	          0.00000000	         -1.83356525	          0.00000000	
          0.08080258	       -107.84070494	        891.26155342	          4.77226020	          0.14871116	          0.00000000	          0.08070276	         61.68811392	        408.96053118	        -16.46526688	         -0.21282748	          0.00000000	         -0.10046079	          0.00000000	          2.89530027	          0.00000000	          0.00000000	         -1.34043289	          0.00000000	
          0.09696310	        -99.48066742	        892.37623947	          1.40375502	          0.14818266	          0.00000000	          0.08137912	         50.22440762	        342.65309910	        -21.05842504	         -0.20241064	          0.00000000	         -0.10097191	          0.00000000	          1.02023111	          0.00000000	          0.00000000	         -0.99782581	          0.00000000	
          0.11312362	        -88.06306830	        876.84372902	         -2.45737864	          0.14826827	          0.00000000	          0.08181705	         35.74910609	        276.53967492	        -23.87394888	         -0.19009891	          0.00000000	         -0.10297599	          0.00000000	         -0.73422333	          0.00000000	          0.00000000	         -0.64406243	          0.00000000	
          0.12928413	        -74.86671796	        861.52590560	         -6.81358982	          0.14866016	          0.00000000	          0.08218647	         22.30654525	        218.08136803	        -23.98474114	         -0.17729042	          0.00000000	         -0.10649398	          0.00000000	         -2.14915033	          0.00000000	          0.00000000	         -0.39446059	          0.00000000	
          0.14544465	        -62.58143254	        854.32134888	        -10.85468380	          0.15080004	          0.00000000	          0.08224279	         12.27322044	        171.94896179	        -24.74178410	         -0.16599758	          0.00000000	         -0.10883424	          0.00000000	         -3.24011007	          0.00000000	          0.00000000	         -0.11224610	          0.00000000	
